<?xml version="1.0" encoding="utf-8"?>
<!-- Generator: Adobe Illustrator 24.1.1, SVG Export Plug-In . SVG Version: 6.00 Build 0)  -->
<svg version="1.1" id="Layer_1" xmlns="http://www.w3.org/2000/svg" xmlns:xlink="http://www.w3.org/1999/xlink" x="0px" y="0px"
	 viewBox="0 0 540 540" style="enable-background:new 0 0 540 540;" xml:space="preserve">
<style type="text/css">
	.st0{fill:#F6881F;}
	.st1{fill:#FFFFFF;}
</style>
<g>
	<path class="st0" d="M526.92,273.69c0-139.88-113.39-253.27-253.27-253.27S20.39,133.81,20.39,273.69s113.39,253.27,253.27,253.27
		S526.92,413.56,526.92,273.69z M268.21,366.24c-1.53,5.56-8.1,10.09-15.25,10.07c-8.9-0.03-16.95-3.06-24.41-7.75
		c-16.48-10.37-28.11-25.41-38.81-41.17c-9.08-13.36-17.51-27.15-26.22-40.76c-0.97-1.52-1.91-3.06-3.14-5.03
		c-5.4,3.93-10.44,7.69-15.58,11.3c-5.73,4.02-11.68,7.72-17.26,11.93c-1.57,1.18-3.06,3.68-3.04,5.56
		c0.16,15.14,0.74,30.28,1.07,45.43c0.06,2.96,0.07,6.06-0.71,8.87c-2.57,9.28-9.48,12.57-21.14,10.49
		c-8.04-1.44-13.04-5.47-13.63-13.69c-1.21-16.72-2.04-33.53-1.77-50.29c0.25-15.77,2.24-31.5,3.23-47.26
		c0.59-9.3,1.33-18.65,0.91-27.93c-0.59-13.26-2.41-26.46-3.22-39.71c-0.31-5.04-0.08-10.4,1.34-15.19
		c2.34-7.89,10.68-11.22,21.18-9.53c7.82,1.26,13.01,7.52,13.69,15.49c2.23,26.11,1.58,52.2-0.19,78.29
		c-0.05,0.78-0.01,1.57-0.01,3.45c6.87-5.48,13.23-10.23,19.24-15.4c26.29-22.63,52.06-45.8,73.95-72.9
		c4.28-5.29,9.37-9.03,16.62-8.35c12.98,1.23,19.29,11.85,13.5,23.62c-2.38,4.83-5.83,9.4-9.67,13.2
		c-15.97,15.84-32.25,31.37-48.48,46.95c-1.92,1.85-3.32,3.15-1.61,6.23c13.44,24.27,27.91,47.85,47.71,67.52
		c7.39,7.34,15.94,13.59,24.36,19.8C267.87,354.62,270.21,358.97,268.21,366.24z M385.65,375.47c-9.79,0.39-19.58,1.83-29.35,1.72
		c-15.67-0.18-31.11-2.65-46.04-7.62c-13.23-4.4-15.76-11.7-15.83-21.14c-0.24-33.47-1.34-66.93-1.7-100.4
		c-0.17-15.97,0.43-31.96,0.98-47.93c0.56-16.12,12.67-28.19,29.65-28.23c21.28-0.05,42.61,0.44,63.84,1.94
		c14.59,1.03,27.85,6.81,40.07,15.29c20.93,14.52,24.23,46.6,4.55,65.96c-4.12,4.05-8.81,7.51-13.8,11.7c2.82,0.67,5.42,1.25,8,1.91
		c18.57,4.79,31.24,15.58,34.07,35.28c2.39,16.67-4.03,30.76-15.01,42.85C429.18,364.32,409.65,374.52,385.65,375.47z"/>
	<path class="st1" d="M460.09,303.96c-2.82-22.94-21-33.45-42.07-37.19c51.43-34.2,22.64-88.98-30.82-92.95
		c-79.84-1.84-98.06-18.94-94.47,74.22c0.36,33.47,1.46,66.93,1.69,100.4c0.07,9.43,2.6,16.74,15.83,21.14
		c24.34,8.65,50.04,8.42,75.39,5.9c24.01-0.94,43.54-11.15,59.44-28.66C456.06,334.72,462.49,320.62,460.09,303.96z M330.99,204.63
		c18.52-1.69,37.26-4.77,55.51,0.06c20.96,3.15,31.13,31.44,13.06,44.03c-14.22,10.09-31.7,10.35-48.43,9.85c0,0.05,0,0.09,0,0.14
		c-5.19-1.24-24.21,3.46-22.92-4.24c-0.15-14.97-0.44-29.95-0.81-44.91C327.33,206.76,328.16,204.89,330.99,204.63z M422.86,320.15
		c-7.77,31.27-61.24,31.53-86.85,25.68c-4.92-1.18-6.79-3.54-6.77-9c0.14-16.01-1.06-31.94-1.24-47.96
		C352.81,288.91,434.51,276.46,422.86,320.15z"/>
	<path class="st1" d="M260.88,349.47c-32.24-21.43-53.89-53.87-72.07-87.32c-1.71-3.08-0.31-4.38,1.61-6.23
		c16.22-15.58,32.51-31.11,48.48-46.95c12.92-10.94,18.88-34.46-3.83-36.82c-7.24-0.68-12.34,3.05-16.62,8.35
		c-27.48,33.39-59.25,61.5-93.19,88.3c1.32-27.38,2.73-54.38,0.2-81.74c-0.68-7.98-5.87-14.24-13.69-15.49
		c-10.5-1.69-18.84,1.65-21.18,9.53c-3.95,17.99,1.81,36.71,1.88,54.9c-0.49,41.86-7.29,83.56-2.37,125.48
		c0.26,17.62,32.61,19.41,34.77,3.21c4.81-70.56-17.97-44.45,35.51-83.09c20.6,30.53,36.58,66,68.17,86.96
		c7.46,4.69,15.51,7.73,24.41,7.75C268.74,376.21,275.18,357.91,260.88,349.47z"/>
	<path class="st0" d="M409.56,293.28c-10.8-4.48-22.03-6.16-33.64-5.87c-15.27,0.37-30.53,0.69-45.8,1.05
		c-0.63,0.01-1.25,0.24-2.12,0.42c0,1.28-0.03,2.4,0,3.52c0.47,14.81,1.29,29.62,1.23,44.43c-0.02,5.46,1.85,7.82,6.77,9
		c24.97,5.98,49.2,3.41,72.54-6.8c7.88-3.44,12.15-10.53,14.31-18.88C426.46,306.25,422.73,298.74,409.56,293.28z"/>
	<path class="st0" d="M332.66,258.76c6.15-0.17,12.31-0.05,18.47-0.05c0-0.05,0-0.09,0-0.14c5.66,0,11.33,0.22,16.97-0.05
		c11.31-0.53,21.99-3.35,31.46-9.8c5.67-3.87,9.02-9.03,9.14-16.21c0.27-15.29-7.4-23.9-22.21-27.82
		c-18.25-4.83-36.99-1.75-55.51-0.06c-2.83,0.26-3.66,2.13-3.59,4.93c0.38,14.97,0.67,29.94,0.81,44.91
		C328.25,257.75,329.46,258.85,332.66,258.76z"/>
</g>
</svg>
